. 
  
http://www.torrenting.com/        :     Greatest Movie Tracker on The Net!!!
 
http://www.Torrenting.com          :     Once & For all ;)


               www . Torrenting . Com 

(((((((((((((= Enjoy No RAR releases =))))))))))))))))))))


...................................NFO:....................................

.                                                                                                     
       
     
     
       
       
     
     
                                         
                                         
                EXVID                    
                                         
         
                                         
         Filled the Archives             
                                         
         
                                         
                With:                    
                                         
         
                                         
                                    
     E240                           
                                    
     SP               (C) 2009      
                                         
     
     
     
                                                                                  
                                                                                   
                   The.Outfit.1973.DVDRip.XviD-EXViD                                
                                                                                   
                                                                                  
     
                                                                                               
EXViD aims to iNTERNAL those releases which have been lost in the archives.
EXViD aims to PRE non-internal releases which have poor sources and are likely skipped by others. 
http://www.imdb.com/title/tt0071960/
Subtitles: None
Date: 2011.08

Director: John Flynn

Genres: Crime | Thriller | Drama

Plot:
When the small criminal Macklin is released from prison, he learns that shortly before his brother
was shot by two killers. They didn't know that the bank they robbed was owned by the syndicate.
When he's almost offed by a killer too, he pays the mobster Jack Manner a visit and demands
reparation. His friend Cody helps him to gratify his thirst for revenge.

Cast:
Robert Duvall 	 ... 	 Macklin 
Karen Black 	 ... 	 Bett Harrow 
Joe Don Baker 	 ... 	 Cody 
Robert Ryan 	 ... 	 Mailer 
Timothy Carey 	 ... 	 Menner 
Richard Jaeckel 	 ... 	 Chemey 
Sheree North 	 ... 	 Buck's Wife 
Felice Orlandi 	 ... 	 Frank Orlandi 
Marie Windsor 	 ... 	 Madge Coyle 
Jane Greer 	 ... 	 Alma 
Henry Jones 	 ... 	 Doctor 
Joanna Cassidy 	 ... 	 Rita 
Tom Reese 	 ... 	 First Man 
Elisha Cook Jr. 	 ... 	 Carl (as Elisha Cook) 
Bill McKinney 	 ... 	 Buck

Stats:
Format                           : AVI
Format/Info                      : Audio Video Interleave
File size                        : 700 MiB
Duration                         : 1h 43mn
Overall bit rate                 : 951 Kbps
Writing application              : Nandub v1.0rc2
Writing library                  : Nandub build 1852/release

Video
ID                               : 0
Format                           : MPEG-4 Visual
Format profile                   : Advanced Simple@L5
Format settings, BVOP            : 2
Format settings, QPel            : No
Format settings, GMC             : No warppoints
Format settings, Matrix          : Default (H.263)
Codec ID                         : XVID
Codec ID/Hint                    : XviD
Duration                         : 1h 43mn
Bit rate                         : 865 Kbps
Width                            : 592 pixels
Height                           : 336 pixels
Display aspect ratio             : 16:9
Frame rate                       : 23.976 fps
Color space                      : YUV
Chroma subsampling               : 4:2:0
Bit depth                        : 8 bits
Scan type                        : Progressive
Compression mode                 : Lossy
Bits/(Pixel*Frame)               : 0.181
Stream size                      : 637 MiB (91%)
Writing library                  : XviD 64

Audio
ID                               : 1
Format                           : MPEG Audio
Format version                   : Version 1
Format profile                   : Layer 3
Codec ID                         : 55
Codec ID/Hint                    : MP3
Duration                         : 1h 43mn
Bit rate mode                    : Variable
Bit rate                         : 72.7 Kbps
Nominal bit rate                 : 80.0 Kbps
Channel(s)                       : 1 channel
Sampling rate                    : 48.0 KHz
Compression mode                 : Lossy
Stream size                      : 53.6 MiB (8%)
Alignment                        : Aligned on interleaves
Interleave, duration             : 24 ms (0.58 video frame)
Interleave, preload duration     : 467 ms
Writing library                  : LAME3.98r
Encoding settings                : -m m -V 4 -q 3 -lowpass 20.3 --abr 80




Release notes:
enjoy!

Looking for:
75TB+ Archives
DUTCH/FLEMiSH Archives
                                                                                                    
Greets: CRBS EPiSODE FiCO FLS iLS KLASSiGER LiPSYNC MADE NODLABS RUNNER SPRiNTER      
   

                                                                    ASCII DONE BY XX^NFO 2oo9